<svg xmlns="http://www.w3.org/2000/svg" viewBox="0 0 160 192" fill="none">
  <rect x="4" y="4" width="152" height="184" rx="40" fill="#e6f7f5"/>
  <path d="M38 92V65a42 42 0 0 1 84 0v57H38Z" fill="#654839"/>
  <path d="M30 183v-31a50 50 0 0 1 100 0v31" fill="#008779"/>
  <path d="M69 104h22v24l-11 12-11-12" fill="#efb98e"/>
  <ellipse cx="80" cy="73" rx="34" ry="40" fill="#f6cba6"/>
  <path d="M44 68c-5-46 64-60 74-7-21-1-32-12-38-22-8 17-21 25-36 29" fill="#654839"/>
  <circle cx="67" cy="76" r="3" fill="#0a4f48"/><circle cx="94" cy="76" r="3" fill="#0a4f48"/>
  <path d="M70 92q10 9 20 0" stroke="#a65e49" stroke-width="3" stroke-linecap="round"/>
  <path d="m100 39 12-4 3 10-12 4" fill="#f59e0b"/>
  <path d="M55 150v33m50-33v33" stroke="#0a4f48" stroke-width="3" stroke-linecap="round"/>
</svg>
